<?xml version="1.0" encoding="UTF-8" standalone="no"?> <svg xmlns="http://www.w3.org/2000/svg" viewBox="0 0 64 64"><g id="Bookshelves-books-library-study-education-book_store" data-name="Bookshelves-books-library-study-education-book store"><polygon points="61 57 61 61 3 61 3 57 8 57 11 57 15 57 18 57 24 57 28 57 31 57 35 57 40 57 57 57 61 57" style="fill:#78b9eb"/><path d="M35,37v6H31V39a2.006,2.006,0,0,1,2-2Z" style="fill:#78b9eb"/><path d="M15,42a2.006,2.006,0,0,1,2-2h1V57H15Z" style="fill:#78b9eb"/><path d="M28,45a2.006,2.006,0,0,1,2-2h1V57H28Z" style="fill:#78b9eb"/><path d="M11,35V57H8V36a1,1,0,0,1,1-1Z" style="fill:#78b9eb"/><polygon points="57 37 57 57 40 57 40 43 35 43 35 37 57 37" style="fill:#78b9eb"/><path d="M24,35v5H17a2.006,2.006,0,0,0-2,2V57H11V35Z" style="fill:#78b9eb"/><polygon points="40 23 42 23 52 23 56 23 61 23 61 27 3 27 3 23 5 23 8 23 17 23 20 23 24 23 28 23 31 23 33 23 40 23" style="fill:#78b9eb"/><path d="M24,3V6H19a2.006,2.006,0,0,0-2,2V9H8V5a2.006,2.006,0,0,1,2-2Z" style="fill:#78b9eb"/><path d="M8,9H20V23H5V11A2.006,2.006,0,0,1,7,9Zm8,3H9v3h7Z" style="fill:#78b9eb"/><polygon points="42 11 42 23 40 23 33 23 31 23 31 9 33 9 40 9 42 9 42 11" style="fill:#78b9eb"/><path d="M28,11a2.006,2.006,0,0,1,2-2h1V23H28Z" style="fill:#78b9eb"/><rect x="42" y="11" width="10" height="12" style="fill:#78b9eb"/><path d="M61,56H58V37a1,1,0,0,0-1-1H33a3.009,3.009,0,0,0-3,3H25V35a1,1,0,0,0-1-1H9a2.006,2.006,0,0,0-2,2V56H3a1,1,0,0,0-1,1v4a1,1,0,0,0,1,1H61a1,1,0,0,0,1-1V57A1,1,0,0,0,61,56ZM36,38H56V56H41V43a1,1,0,0,0-1-1H36Zm-4,1a1,1,0,0,1,1-1h1v4H32Zm0,5h7V56H32Zm-2-3v1a3.009,3.009,0,0,0-3,3V56H19V41Zm0,3V56H29V45A1,1,0,0,1,30,44ZM12,36H23v3H17a3.009,3.009,0,0,0-3,3V56H12Zm5,5V56H16V42A1,1,0,0,1,17,41ZM9,36h1V56H9ZM60,60H4V58H60Z" style="fill:#006df0"/><path d="M61,22H57V3a1,1,0,0,0-1-1H42a3.009,3.009,0,0,0-3,3V8H34V6a1,1,0,0,0-1-1H25V3a1,1,0,0,0-1-1H10A3.009,3.009,0,0,0,7,5V8a3.009,3.009,0,0,0-3,3V22H3a1,1,0,0,0-1,1v4a1,1,0,0,0,1,1H61a1,1,0,0,0,1-1V23A1,1,0,0,0,61,22ZM41,5a1,1,0,0,1,1-1H55V22H53V11a1,1,0,0,0-1-1H43V9a1,1,0,0,0-1-1H41Zm10,7V22H43V12ZM41,10V22H32V10ZM32,7V8H30a3.009,3.009,0,0,0-3,3V22H21V9a1,1,0,0,0-1-1H18a1,1,0,0,1,1-1Zm-2,3V22H29V11A1,1,0,0,1,30,10ZM9,5a1,1,0,0,1,1-1H23V5H19a3.009,3.009,0,0,0-3,3H9ZM6,11a1,1,0,0,1,1-1H19V22H6ZM60,26H4V24H60Z" style="fill:#006df0"/><path d="M9,16h7a1,1,0,0,0,1-1V12a1,1,0,0,0-1-1H9a1,1,0,0,0-1,1v3A1,1,0,0,0,9,16Zm1-3h5v1H10Z" style="fill:#006df0"/></g></svg>